<svg xmlns="http://www.w3.org/2000/svg" viewBox="0 0 420 360">
      <defs><linearGradient id="back" x1="0" y1="0" x2="1" y2="1"><stop stop-color="#e9eee2"/><stop offset="1" stop-color="#f7f4e9"/></linearGradient><linearGradient id="pot" x1="0" y1="0" x2="1" y2="1"><stop stop-color="#ab7254"/><stop offset="1" stop-color="#95654d"/></linearGradient></defs>
      <rect width="420" height="360" rx="20" fill="url(#back)"/><circle cx="336" cy="67" r="42" fill="#fff" opacity=".27"/><circle cx="62" cy="288" r="33" fill="#b7c9a5" opacity=".16"/><path d="M27 307 Q108 290 151 307" fill="none" stroke="#90a78b" stroke-width="2" opacity=".35"/><ellipse cx="210" cy="340" rx="106" ry="12" fill="#789071" opacity=".08"/>
      <path d="M210 257 Q195.2 236.5 169 236" fill="none" stroke="#416d49" stroke-width="3.4" stroke-linecap="round"/><path d="M210 257 Q223.0 235.7 246 234" fill="none" stroke="#416d49" stroke-width="3.4" stroke-linecap="round"/><path d="M210 257 Q188.4 222.1 150 198" fill="none" stroke="#416d49" stroke-width="3.4" stroke-linecap="round"/><path d="M210 257 Q230.5 220.5 267 194" fill="none" stroke="#416d49" stroke-width="3.4" stroke-linecap="round"/><path d="M210 257 Q200.6 209.5 184 165" fill="none" stroke="#416d49" stroke-width="3.4" stroke-linecap="round"/><path d="M210 257 Q219.0 207.2 235 159" fill="none" stroke="#416d49" stroke-width="3.4" stroke-linecap="round"/><path d="M210 257 Q210.0 198.5 210 136" fill="none" stroke="#416d49" stroke-width="3.4" stroke-linecap="round"/><g transform="translate(169.0 232.0) rotate(-53.0)"><path d="M 0 0 C -26.0 -22.8 -24.7 -69.2 0 -91.0 C 24.7 -69.2 26.0 -22.8 0 0 Z" fill="#42744b" stroke="#315d3d" stroke-opacity=".14" stroke-width="1"/><path d="M 0 0 Q 2.1 -43.7 0 -86.5" fill="none" stroke="#d9e3c5" stroke-width="1.6" stroke-linecap="round" opacity=".62"/></g><g transform="translate(246.0 230.0) rotate(50.0)"><path d="M 0 0 C -27.0 -23.0 -25.6 -69.9 0 -92.0 C 25.6 -69.9 27.0 -23.0 0 0 Z" fill="#699159" stroke="#315d3d" stroke-opacity=".14" stroke-width="1"/><path d="M 0 0 Q 2.2 -44.2 0 -87.4" fill="none" stroke="#d9e3c5" stroke-width="1.6" stroke-linecap="round" opacity=".62"/></g><g transform="translate(150.0 194.0) rotate(-60.0)"><path d="M 0 0 C -28.0 -22.8 -26.6 -69.2 0 -91.0 C 26.6 -69.2 28.0 -22.8 0 0 Z" fill="#42744b" stroke="#315d3d" stroke-opacity=".14" stroke-width="1"/><path d="M 0 0 Q 2.2 -43.7 0 -86.5" fill="none" stroke="#d9e3c5" stroke-width="1.6" stroke-linecap="round" opacity=".62"/></g><g transform="translate(267.0 190.0) rotate(58.0)"><path d="M 0 0 C -28.0 -23.2 -26.6 -70.7 0 -93.0 C 26.6 -70.7 28.0 -23.2 0 0 Z" fill="#42744b" stroke="#315d3d" stroke-opacity=".14" stroke-width="1"/><path d="M 0 0 Q 2.2 -44.6 0 -88.3" fill="none" stroke="#d9e3c5" stroke-width="1.6" stroke-linecap="round" opacity=".62"/></g><g transform="translate(184.0 161.0) rotate(-29.0)"><path d="M 0 0 C -30.0 -26.0 -28.5 -79.0 0 -104.0 C 28.5 -79.0 30.0 -26.0 0 0 Z" fill="#699159" stroke="#315d3d" stroke-opacity=".14" stroke-width="1"/><path d="M 0 0 Q 2.4 -49.9 0 -98.8" fill="none" stroke="#d9e3c5" stroke-width="1.6" stroke-linecap="round" opacity=".62"/></g><g transform="translate(235.0 155.0) rotate(30.0)"><path d="M 0 0 C -31.0 -26.2 -29.4 -79.8 0 -105.0 C 29.4 -79.8 31.0 -26.2 0 0 Z" fill="#42744b" stroke="#315d3d" stroke-opacity=".14" stroke-width="1"/><path d="M 0 0 Q 2.5 -50.4 0 -99.8" fill="none" stroke="#d9e3c5" stroke-width="1.6" stroke-linecap="round" opacity=".62"/></g><g transform="translate(210.0 132.0) rotate(2.0)"><path d="M 0 0 C -31.0 -27.8 -29.4 -84.4 0 -111.0 C 29.4 -84.4 31.0 -27.8 0 0 Z" fill="#42744b" stroke="#315d3d" stroke-opacity=".14" stroke-width="1"/><path d="M 0 0 Q 2.5 -53.3 0 -105.4" fill="none" stroke="#d9e3c5" stroke-width="1.6" stroke-linecap="round" opacity=".62"/></g>
      <ellipse cx="210" cy="334" rx="69" ry="12" fill="#596b50" opacity=".13"/><path d="M158 263 L262 263 L249 332 Q210 343 171 332Z" fill="url(#pot)"/><path d="M158 264 L262 264 L258 279 L162 279Z" fill="#d49a72" opacity=".42"/><rect x="153" y="252" width="114" height="20" rx="5" fill="#ab7254"/><ellipse cx="210" cy="255" rx="56" ry="8" fill="#795746" opacity=".82"/><ellipse cx="210" cy="254" rx="50" ry="5.5" fill="#544438" opacity=".55"/><path d="M169 278 L178 327" stroke="#fff5df" stroke-width="3" opacity=".22"/>
    </svg>